<mxfile host="www.draw.io" modified="2019-11-21T16:56:18.294Z" agent="Mozilla/5.0 (Macintosh; Intel Mac OS X 10_12_6) AppleWebKit/537.36 (KHTML, like Gecko) Chrome/78.0.3904.97 Safari/537.36" etag="tdpmZMQ_a4k-K_TX2LiR" version="12.2.8" type="github" pages="1">
  <diagram name="Page-1" id="edf60f1a-56cd-e834-aa8a-f176f3a09ee4">
    <mxGraphModel dx="1172" dy="1395" grid="1" gridSize="10" guides="1" tooltips="1" connect="1" arrows="1" fold="1" page="1" pageScale="1" pageWidth="1100" pageHeight="850" background="#ffffff" math="0" shadow="0">
      <root>
        <mxCell id="0"/>
        <mxCell id="1" parent="0"/>
        <mxCell id="XrKe5aRZUblpGtLHqjQT-18" value="" style="edgeStyle=orthogonalEdgeStyle;rounded=0;orthogonalLoop=1;jettySize=auto;html=1;" parent="1" source="XrKe5aRZUblpGtLHqjQT-1" target="XrKe5aRZUblpGtLHqjQT-4" edge="1">
          <mxGeometry relative="1" as="geometry"/>
        </mxCell>
        <mxCell id="XrKe5aRZUblpGtLHqjQT-1" value="1登陆页" style="rounded=1;whiteSpace=wrap;html=1;" parent="1" vertex="1">
          <mxGeometry x="449" y="360" width="120" height="60" as="geometry"/>
        </mxCell>
        <mxCell id="XrKe5aRZUblpGtLHqjQT-2" value="0引导调度页" style="rounded=1;whiteSpace=wrap;html=1;" parent="1" vertex="1">
          <mxGeometry x="270" y="360" width="120" height="60" as="geometry"/>
        </mxCell>
        <mxCell id="XrKe5aRZUblpGtLHqjQT-19" value="" style="edgeStyle=orthogonalEdgeStyle;rounded=0;orthogonalLoop=1;jettySize=auto;html=1;" parent="1" source="XrKe5aRZUblpGtLHqjQT-4" target="XrKe5aRZUblpGtLHqjQT-5" edge="1">
          <mxGeometry relative="1" as="geometry"/>
        </mxCell>
        <mxCell id="XrKe5aRZUblpGtLHqjQT-25" style="edgeStyle=orthogonalEdgeStyle;rounded=0;orthogonalLoop=1;jettySize=auto;html=1;exitX=0.5;exitY=1;exitDx=0;exitDy=0;entryX=0;entryY=0.5;entryDx=0;entryDy=0;" parent="1" source="XrKe5aRZUblpGtLHqjQT-4" target="XrKe5aRZUblpGtLHqjQT-9" edge="1">
          <mxGeometry relative="1" as="geometry"/>
        </mxCell>
        <mxCell id="XrKe5aRZUblpGtLHqjQT-26" style="edgeStyle=orthogonalEdgeStyle;rounded=0;orthogonalLoop=1;jettySize=auto;html=1;exitX=0.5;exitY=1;exitDx=0;exitDy=0;entryX=0;entryY=0.5;entryDx=0;entryDy=0;" parent="1" source="XrKe5aRZUblpGtLHqjQT-4" target="XrKe5aRZUblpGtLHqjQT-10" edge="1">
          <mxGeometry relative="1" as="geometry"/>
        </mxCell>
        <mxCell id="XrKe5aRZUblpGtLHqjQT-27" style="edgeStyle=orthogonalEdgeStyle;rounded=0;orthogonalLoop=1;jettySize=auto;html=1;exitX=0.5;exitY=1;exitDx=0;exitDy=0;entryX=0;entryY=0.5;entryDx=0;entryDy=0;" parent="1" source="XrKe5aRZUblpGtLHqjQT-4" target="XrKe5aRZUblpGtLHqjQT-12" edge="1">
          <mxGeometry relative="1" as="geometry"/>
        </mxCell>
        <mxCell id="XrKe5aRZUblpGtLHqjQT-28" style="edgeStyle=orthogonalEdgeStyle;rounded=0;orthogonalLoop=1;jettySize=auto;html=1;exitX=0.5;exitY=1;exitDx=0;exitDy=0;entryX=0;entryY=0.5;entryDx=0;entryDy=0;" parent="1" source="XrKe5aRZUblpGtLHqjQT-4" target="XrKe5aRZUblpGtLHqjQT-13" edge="1">
          <mxGeometry relative="1" as="geometry"/>
        </mxCell>
        <mxCell id="XrKe5aRZUblpGtLHqjQT-4" value="2首页" style="rounded=1;whiteSpace=wrap;html=1;" parent="1" vertex="1">
          <mxGeometry x="628" y="360" width="120" height="60" as="geometry"/>
        </mxCell>
        <mxCell id="XrKe5aRZUblpGtLHqjQT-20" value="" style="edgeStyle=orthogonalEdgeStyle;rounded=0;orthogonalLoop=1;jettySize=auto;html=1;entryX=0;entryY=0.5;entryDx=0;entryDy=0;" parent="1" source="XrKe5aRZUblpGtLHqjQT-46" target="XrKe5aRZUblpGtLHqjQT-6" edge="1">
          <mxGeometry relative="1" as="geometry">
            <mxPoint x="970" y="390" as="targetPoint"/>
          </mxGeometry>
        </mxCell>
        <mxCell id="XrKe5aRZUblpGtLHqjQT-37" value="" style="edgeStyle=orthogonalEdgeStyle;rounded=0;orthogonalLoop=1;jettySize=auto;html=1;entryX=0.5;entryY=1;entryDx=0;entryDy=0;" parent="1" source="XrKe5aRZUblpGtLHqjQT-5" target="XrKe5aRZUblpGtLHqjQT-39" edge="1">
          <mxGeometry relative="1" as="geometry">
            <mxPoint x="867" y="280" as="targetPoint"/>
          </mxGeometry>
        </mxCell>
        <mxCell id="XrKe5aRZUblpGtLHqjQT-64" style="edgeStyle=orthogonalEdgeStyle;rounded=0;orthogonalLoop=1;jettySize=auto;html=1;exitX=0;exitY=0.25;exitDx=0;exitDy=0;entryX=1;entryY=0.75;entryDx=0;entryDy=0;" parent="1" source="XrKe5aRZUblpGtLHqjQT-5" target="XrKe5aRZUblpGtLHqjQT-63" edge="1">
          <mxGeometry relative="1" as="geometry"/>
        </mxCell>
        <mxCell id="XrKe5aRZUblpGtLHqjQT-5" value="3产品套题列表页" style="rounded=1;whiteSpace=wrap;html=1;" parent="1" vertex="1">
          <mxGeometry x="807" y="360" width="120" height="60" as="geometry"/>
        </mxCell>
        <mxCell id="XrKe5aRZUblpGtLHqjQT-21" value="" style="edgeStyle=orthogonalEdgeStyle;rounded=0;orthogonalLoop=1;jettySize=auto;html=1;" parent="1" source="XrKe5aRZUblpGtLHqjQT-6" target="XrKe5aRZUblpGtLHqjQT-7" edge="1">
          <mxGeometry relative="1" as="geometry"/>
        </mxCell>
        <mxCell id="XrKe5aRZUblpGtLHqjQT-73" style="edgeStyle=orthogonalEdgeStyle;rounded=0;orthogonalLoop=1;jettySize=auto;html=1;exitX=0.5;exitY=0;exitDx=0;exitDy=0;" parent="1" source="XrKe5aRZUblpGtLHqjQT-6" target="XrKe5aRZUblpGtLHqjQT-72" edge="1">
          <mxGeometry relative="1" as="geometry"/>
        </mxCell>
        <mxCell id="XrKe5aRZUblpGtLHqjQT-6" value="4做题页" style="rounded=1;whiteSpace=wrap;html=1;" parent="1" vertex="1">
          <mxGeometry x="1165" y="360" width="120" height="60" as="geometry"/>
        </mxCell>
        <mxCell id="XrKe5aRZUblpGtLHqjQT-22" value="" style="edgeStyle=orthogonalEdgeStyle;rounded=0;orthogonalLoop=1;jettySize=auto;html=1;" parent="1" source="XrKe5aRZUblpGtLHqjQT-7" target="XrKe5aRZUblpGtLHqjQT-11" edge="1">
          <mxGeometry relative="1" as="geometry"/>
        </mxCell>
        <mxCell id="2Z_xSQai-SlI3JtjCjO3-4" style="edgeStyle=orthogonalEdgeStyle;rounded=0;orthogonalLoop=1;jettySize=auto;html=1;exitX=0.5;exitY=0;exitDx=0;exitDy=0;entryX=0.5;entryY=1;entryDx=0;entryDy=0;" edge="1" parent="1" source="XrKe5aRZUblpGtLHqjQT-7" target="2Z_xSQai-SlI3JtjCjO3-1">
          <mxGeometry relative="1" as="geometry"/>
        </mxCell>
        <mxCell id="XrKe5aRZUblpGtLHqjQT-7" value="5报告汇总页" style="rounded=1;whiteSpace=wrap;html=1;" parent="1" vertex="1">
          <mxGeometry x="1344" y="360" width="120" height="60" as="geometry"/>
        </mxCell>
        <mxCell id="XrKe5aRZUblpGtLHqjQT-8" value="微信网页" style="rounded=0;whiteSpace=wrap;html=1;fillColor=#f8cecc;strokeColor=#b85450;" parent="1" vertex="1">
          <mxGeometry y="180" width="120" height="60" as="geometry"/>
        </mxCell>
        <mxCell id="2Z_xSQai-SlI3JtjCjO3-14" style="edgeStyle=orthogonalEdgeStyle;rounded=0;orthogonalLoop=1;jettySize=auto;html=1;exitX=1;exitY=0.5;exitDx=0;exitDy=0;" edge="1" parent="1" source="XrKe5aRZUblpGtLHqjQT-9" target="2Z_xSQai-SlI3JtjCjO3-11">
          <mxGeometry relative="1" as="geometry"/>
        </mxCell>
        <mxCell id="XrKe5aRZUblpGtLHqjQT-9" value="7学习记录页" style="rounded=1;whiteSpace=wrap;html=1;" parent="1" vertex="1">
          <mxGeometry x="807" y="460" width="120" height="60" as="geometry"/>
        </mxCell>
        <mxCell id="XrKe5aRZUblpGtLHqjQT-35" value="" style="edgeStyle=orthogonalEdgeStyle;rounded=0;orthogonalLoop=1;jettySize=auto;html=1;" parent="1" source="XrKe5aRZUblpGtLHqjQT-10" target="XrKe5aRZUblpGtLHqjQT-34" edge="1">
          <mxGeometry relative="1" as="geometry"/>
        </mxCell>
        <mxCell id="XrKe5aRZUblpGtLHqjQT-10" value="8礼物页" style="rounded=1;whiteSpace=wrap;html=1;" parent="1" vertex="1">
          <mxGeometry x="807" y="560" width="120" height="60" as="geometry"/>
        </mxCell>
        <mxCell id="XrKe5aRZUblpGtLHqjQT-11" value="6报告讲解页" style="rounded=1;whiteSpace=wrap;html=1;" parent="1" vertex="1">
          <mxGeometry x="1523" y="360" width="120" height="60" as="geometry"/>
        </mxCell>
        <mxCell id="XrKe5aRZUblpGtLHqjQT-32" value="" style="edgeStyle=orthogonalEdgeStyle;rounded=0;orthogonalLoop=1;jettySize=auto;html=1;" parent="1" source="XrKe5aRZUblpGtLHqjQT-12" target="XrKe5aRZUblpGtLHqjQT-14" edge="1">
          <mxGeometry relative="1" as="geometry"/>
        </mxCell>
        <mxCell id="XrKe5aRZUblpGtLHqjQT-12" value="10 MyBestScore" style="rounded=1;whiteSpace=wrap;html=1;" parent="1" vertex="1">
          <mxGeometry x="807" y="660" width="120" height="60" as="geometry"/>
        </mxCell>
        <mxCell id="XrKe5aRZUblpGtLHqjQT-29" value="" style="edgeStyle=orthogonalEdgeStyle;rounded=0;orthogonalLoop=1;jettySize=auto;html=1;" parent="1" source="XrKe5aRZUblpGtLHqjQT-13" target="XrKe5aRZUblpGtLHqjQT-15" edge="1">
          <mxGeometry relative="1" as="geometry"/>
        </mxCell>
        <mxCell id="XrKe5aRZUblpGtLHqjQT-13" value="12 MyDreamSchool" style="rounded=1;whiteSpace=wrap;html=1;" parent="1" vertex="1">
          <mxGeometry x="807" y="760" width="120" height="60" as="geometry"/>
        </mxCell>
        <mxCell id="XrKe5aRZUblpGtLHqjQT-33" style="edgeStyle=orthogonalEdgeStyle;rounded=0;orthogonalLoop=1;jettySize=auto;html=1;exitX=0;exitY=0.25;exitDx=0;exitDy=0;entryX=1;entryY=0.25;entryDx=0;entryDy=0;" parent="1" source="XrKe5aRZUblpGtLHqjQT-14" target="XrKe5aRZUblpGtLHqjQT-12" edge="1">
          <mxGeometry relative="1" as="geometry"/>
        </mxCell>
        <mxCell id="XrKe5aRZUblpGtLHqjQT-14" value="11 MyBestScore&lt;br&gt;录入页" style="rounded=1;whiteSpace=wrap;html=1;" parent="1" vertex="1">
          <mxGeometry x="986" y="660" width="120" height="60" as="geometry"/>
        </mxCell>
        <mxCell id="XrKe5aRZUblpGtLHqjQT-30" value="" style="edgeStyle=orthogonalEdgeStyle;rounded=0;orthogonalLoop=1;jettySize=auto;html=1;" parent="1" source="XrKe5aRZUblpGtLHqjQT-15" target="XrKe5aRZUblpGtLHqjQT-16" edge="1">
          <mxGeometry relative="1" as="geometry"/>
        </mxCell>
        <mxCell id="XrKe5aRZUblpGtLHqjQT-15" value="学员Survey页" style="rounded=1;whiteSpace=wrap;html=1;" parent="1" vertex="1">
          <mxGeometry x="986" y="760" width="120" height="60" as="geometry"/>
        </mxCell>
        <mxCell id="XrKe5aRZUblpGtLHqjQT-31" value="" style="edgeStyle=orthogonalEdgeStyle;rounded=0;orthogonalLoop=1;jettySize=auto;html=1;" parent="1" source="XrKe5aRZUblpGtLHqjQT-16" target="XrKe5aRZUblpGtLHqjQT-17" edge="1">
          <mxGeometry relative="1" as="geometry"/>
        </mxCell>
        <mxCell id="XrKe5aRZUblpGtLHqjQT-16" value="选校页" style="rounded=1;whiteSpace=wrap;html=1;" parent="1" vertex="1">
          <mxGeometry x="1165" y="760" width="120" height="60" as="geometry"/>
        </mxCell>
        <mxCell id="XrKe5aRZUblpGtLHqjQT-17" value="学校展示页" style="rounded=1;whiteSpace=wrap;html=1;" parent="1" vertex="1">
          <mxGeometry x="1344" y="760" width="120" height="60" as="geometry"/>
        </mxCell>
        <mxCell id="2Z_xSQai-SlI3JtjCjO3-16" value="" style="edgeStyle=orthogonalEdgeStyle;rounded=0;orthogonalLoop=1;jettySize=auto;html=1;" edge="1" parent="1" source="XrKe5aRZUblpGtLHqjQT-34" target="2Z_xSQai-SlI3JtjCjO3-11">
          <mxGeometry relative="1" as="geometry"/>
        </mxCell>
        <mxCell id="XrKe5aRZUblpGtLHqjQT-34" value="9礼物分享页" style="rounded=1;whiteSpace=wrap;html=1;" parent="1" vertex="1">
          <mxGeometry x="986" y="560" width="120" height="60" as="geometry"/>
        </mxCell>
        <mxCell id="XrKe5aRZUblpGtLHqjQT-40" style="edgeStyle=orthogonalEdgeStyle;rounded=0;orthogonalLoop=1;jettySize=auto;html=1;entryX=0.25;entryY=0;entryDx=0;entryDy=0;exitX=0.25;exitY=1;exitDx=0;exitDy=0;" parent="1" source="XrKe5aRZUblpGtLHqjQT-39" target="XrKe5aRZUblpGtLHqjQT-5" edge="1">
          <mxGeometry relative="1" as="geometry">
            <mxPoint x="837" y="250" as="sourcePoint"/>
          </mxGeometry>
        </mxCell>
        <mxCell id="XrKe5aRZUblpGtLHqjQT-39" value="分享场景1007（1）" style="text;html=1;strokeColor=none;fillColor=none;align=center;verticalAlign=middle;whiteSpace=wrap;rounded=0;" parent="1" vertex="1">
          <mxGeometry x="807" y="170" width="120" height="30" as="geometry"/>
        </mxCell>
        <mxCell id="XrKe5aRZUblpGtLHqjQT-43" value="游客／&lt;br&gt;已登陆" style="text;html=1;strokeColor=none;fillColor=#FFFFFF;align=center;verticalAlign=middle;whiteSpace=wrap;rounded=0;" parent="1" vertex="1">
          <mxGeometry x="807" y="270" width="50" height="20" as="geometry"/>
        </mxCell>
        <mxCell id="XrKe5aRZUblpGtLHqjQT-50" value="是" style="text;html=1;strokeColor=none;fillColor=#FFFFFF;align=center;verticalAlign=middle;whiteSpace=wrap;rounded=0;" parent="1" vertex="1">
          <mxGeometry x="1120" y="380" width="20" height="20" as="geometry"/>
        </mxCell>
        <mxCell id="XrKe5aRZUblpGtLHqjQT-60" style="edgeStyle=orthogonalEdgeStyle;rounded=0;orthogonalLoop=1;jettySize=auto;html=1;exitX=0.5;exitY=0;exitDx=0;exitDy=0;entryX=1;entryY=0.25;entryDx=0;entryDy=0;" parent="1" source="XrKe5aRZUblpGtLHqjQT-52" target="XrKe5aRZUblpGtLHqjQT-5" edge="1">
          <mxGeometry relative="1" as="geometry"/>
        </mxCell>
        <mxCell id="XrKe5aRZUblpGtLHqjQT-54" style="edgeStyle=orthogonalEdgeStyle;rounded=0;orthogonalLoop=1;jettySize=auto;html=1;exitX=1;exitY=0.5;exitDx=0;exitDy=0;entryX=0;entryY=0.5;entryDx=0;entryDy=0;" parent="1" source="XrKe5aRZUblpGtLHqjQT-5" target="XrKe5aRZUblpGtLHqjQT-46" edge="1">
          <mxGeometry relative="1" as="geometry">
            <mxPoint x="927" y="390" as="sourcePoint"/>
            <mxPoint x="1165" y="280" as="targetPoint"/>
          </mxGeometry>
        </mxCell>
        <mxCell id="XrKe5aRZUblpGtLHqjQT-46" value="是否有权限" style="text;html=1;strokeColor=none;fillColor=#FFFFFF;align=center;verticalAlign=middle;whiteSpace=wrap;rounded=0;" parent="1" vertex="1">
          <mxGeometry x="960" y="380" width="64" height="20" as="geometry"/>
        </mxCell>
        <mxCell id="XrKe5aRZUblpGtLHqjQT-55" value="" style="edgeStyle=orthogonalEdgeStyle;rounded=0;orthogonalLoop=1;jettySize=auto;html=1;entryX=0;entryY=0.5;entryDx=0;entryDy=0;" parent="1" source="XrKe5aRZUblpGtLHqjQT-5" target="XrKe5aRZUblpGtLHqjQT-46" edge="1">
          <mxGeometry relative="1" as="geometry">
            <mxPoint x="927" y="390" as="sourcePoint"/>
            <mxPoint x="1165" y="390" as="targetPoint"/>
          </mxGeometry>
        </mxCell>
        <mxCell id="XrKe5aRZUblpGtLHqjQT-63" value="买赠" style="rounded=1;whiteSpace=wrap;html=1;" parent="1" vertex="1">
          <mxGeometry x="628" y="250" width="120" height="60" as="geometry"/>
        </mxCell>
        <mxCell id="XrKe5aRZUblpGtLHqjQT-52" value="支付" style="rounded=1;whiteSpace=wrap;html=1;" parent="1" vertex="1">
          <mxGeometry x="986" y="250" width="120" height="60" as="geometry"/>
        </mxCell>
        <mxCell id="XrKe5aRZUblpGtLHqjQT-68" value="" style="edgeStyle=orthogonalEdgeStyle;rounded=0;orthogonalLoop=1;jettySize=auto;html=1;" parent="1" source="XrKe5aRZUblpGtLHqjQT-56" target="XrKe5aRZUblpGtLHqjQT-52" edge="1">
          <mxGeometry relative="1" as="geometry"/>
        </mxCell>
        <mxCell id="XrKe5aRZUblpGtLHqjQT-56" value="否" style="text;html=1;strokeColor=none;fillColor=#FFFFFF;align=center;verticalAlign=middle;whiteSpace=wrap;rounded=0;" parent="1" vertex="1">
          <mxGeometry x="1036" y="340" width="20" height="20" as="geometry"/>
        </mxCell>
        <mxCell id="XrKe5aRZUblpGtLHqjQT-67" style="edgeStyle=orthogonalEdgeStyle;rounded=0;orthogonalLoop=1;jettySize=auto;html=1;exitX=1;exitY=0.5;exitDx=0;exitDy=0;entryX=0.5;entryY=1;entryDx=0;entryDy=0;" parent="1" source="XrKe5aRZUblpGtLHqjQT-46" target="XrKe5aRZUblpGtLHqjQT-56" edge="1">
          <mxGeometry relative="1" as="geometry">
            <mxPoint x="1050" y="390" as="sourcePoint"/>
            <mxPoint x="1210" y="300" as="targetPoint"/>
            <Array as="points"/>
          </mxGeometry>
        </mxCell>
        <UserObject label="1 微信网页学员发给学员 &lt;br&gt;2 微信网页管理员发给学员&amp;nbsp; &lt;br&gt;3 小程序学员发给学员 &lt;br&gt;4 小程序管理员发给学员&lt;br&gt;微信分享场景：&lt;br&gt;1007单人聊天会话中的消息卡片(1+3)（视频学习、精听、预约系统成功页）&lt;br&gt;  1011扫描二维码(1+2)（产品页、报告汇总页、学习记录页）&lt;br&gt;1035公众号自定义菜单(2)&lt;br&gt;1043公众号模板消息通知(购买成功、买赠成功、学习记录、预约系统操作)&lt;br&gt;1047扫描小程序码（3+4）（产品页、报告汇总页、学习记录页）&lt;br&gt;1058 公众号文章（4）" id="XrKe5aRZUblpGtLHqjQT-71">
          <mxCell style="text;html=1;" parent="1" vertex="1">
            <mxGeometry x="1390" y="-50" width="400" height="170" as="geometry"/>
          </mxCell>
        </UserObject>
        <mxCell id="XrKe5aRZUblpGtLHqjQT-74" style="edgeStyle=orthogonalEdgeStyle;rounded=0;orthogonalLoop=1;jettySize=auto;html=1;exitX=0.25;exitY=1;exitDx=0;exitDy=0;entryX=0.25;entryY=0;entryDx=0;entryDy=0;" parent="1" source="XrKe5aRZUblpGtLHqjQT-72" target="XrKe5aRZUblpGtLHqjQT-6" edge="1">
          <mxGeometry relative="1" as="geometry"/>
        </mxCell>
        <mxCell id="XrKe5aRZUblpGtLHqjQT-81" style="edgeStyle=orthogonalEdgeStyle;rounded=0;orthogonalLoop=1;jettySize=auto;html=1;exitX=0.25;exitY=1;exitDx=0;exitDy=0;entryX=0.75;entryY=0;entryDx=0;entryDy=0;" parent="1" source="XrKe5aRZUblpGtLHqjQT-72" target="XrKe5aRZUblpGtLHqjQT-5" edge="1">
          <mxGeometry relative="1" as="geometry"/>
        </mxCell>
        <mxCell id="XrKe5aRZUblpGtLHqjQT-72" value="分享场景1007（1）（视频学习、精听）" style="text;html=1;strokeColor=none;fillColor=none;align=center;verticalAlign=middle;whiteSpace=wrap;rounded=0;" parent="1" vertex="1">
          <mxGeometry x="1165" y="170" width="120" height="30" as="geometry"/>
        </mxCell>
        <mxCell id="XrKe5aRZUblpGtLHqjQT-75" value="是否有&lt;br&gt;权限" style="text;html=1;strokeColor=none;fillColor=#FFFFFF;align=center;verticalAlign=middle;whiteSpace=wrap;rounded=0;" parent="1" vertex="1">
          <mxGeometry x="1165" y="230" width="50" height="40" as="geometry"/>
        </mxCell>
        <mxCell id="XrKe5aRZUblpGtLHqjQT-77" value="是" style="text;html=1;strokeColor=none;fillColor=#FFFFFF;align=center;verticalAlign=middle;whiteSpace=wrap;rounded=0;" parent="1" vertex="1">
          <mxGeometry x="1182.5" y="320" width="20" height="20" as="geometry"/>
        </mxCell>
        <mxCell id="XrKe5aRZUblpGtLHqjQT-82" value="否" style="text;html=1;strokeColor=none;fillColor=#FFFFFF;align=center;verticalAlign=middle;whiteSpace=wrap;rounded=0;" parent="1" vertex="1">
          <mxGeometry x="1140" y="270" width="20" height="20" as="geometry"/>
        </mxCell>
        <mxCell id="2Z_xSQai-SlI3JtjCjO3-5" style="edgeStyle=orthogonalEdgeStyle;rounded=0;orthogonalLoop=1;jettySize=auto;html=1;exitX=0.25;exitY=1;exitDx=0;exitDy=0;entryX=0.25;entryY=0;entryDx=0;entryDy=0;" edge="1" parent="1" source="2Z_xSQai-SlI3JtjCjO3-1" target="XrKe5aRZUblpGtLHqjQT-7">
          <mxGeometry relative="1" as="geometry"/>
        </mxCell>
        <mxCell id="2Z_xSQai-SlI3JtjCjO3-1" value="分享场景1007、1011（1）" style="text;html=1;strokeColor=none;fillColor=none;align=center;verticalAlign=middle;whiteSpace=wrap;rounded=0;" vertex="1" parent="1">
          <mxGeometry x="1344" y="170" width="120" height="30" as="geometry"/>
        </mxCell>
        <mxCell id="2Z_xSQai-SlI3JtjCjO3-8" value="本人" style="text;html=1;strokeColor=none;fillColor=#FFFFFF;align=center;verticalAlign=middle;whiteSpace=wrap;rounded=0;" vertex="1" parent="1">
          <mxGeometry x="1473.5" y="380" width="30" height="20" as="geometry"/>
        </mxCell>
        <mxCell id="2Z_xSQai-SlI3JtjCjO3-15" style="edgeStyle=orthogonalEdgeStyle;rounded=0;orthogonalLoop=1;jettySize=auto;html=1;exitX=0;exitY=0.25;exitDx=0;exitDy=0;entryX=1;entryY=0.25;entryDx=0;entryDy=0;" edge="1" parent="1" source="2Z_xSQai-SlI3JtjCjO3-11" target="XrKe5aRZUblpGtLHqjQT-9">
          <mxGeometry relative="1" as="geometry"/>
        </mxCell>
        <mxCell id="2Z_xSQai-SlI3JtjCjO3-11" value="分享场景1007、1011（1）" style="text;html=1;strokeColor=none;fillColor=none;align=center;verticalAlign=middle;whiteSpace=wrap;rounded=0;" vertex="1" parent="1">
          <mxGeometry x="986" y="460" width="120" height="60" as="geometry"/>
        </mxCell>
      </root>
    </mxGraphModel>
  </diagram>
</mxfile>
